Coordinates
version=1
nRows=17
nColumns=24
inDegrees=yes

Units are S.I. units (second, meters, Newtons, ...)
Angles are in degrees.

endheader
time	pelvis_tilt	pelvis_list	pelvis_rotation	pelvis_tx	pelvis_ty	pelvis_tz	hip_flexion_r	hip_adduction_r	hip_rotation_r	knee_angle_r	ankle_angle_r	subtalar_angle_r	mtp_angle_r	hip_flexion_l	hip_adduction_l	hip_rotation_l	knee_angle_l	ankle_angle_l	subtalar_angle_l	mtp_angle_l	lumbar_extension	lumbar_bending	lumbar_rotation
      1.00783333	     -2.63543920	     -1.97948545	      0.91345959	      0.43855863	      0.99606209	      0.31120287	     15.34235948	      6.18770936	      2.39591929	    -24.35901806	     12.95997507	    -12.09949954	     -1.43351486	     15.38579083	     -3.74362177	     -0.80670764	    -69.66952413	     -6.16556299	     -1.41616352	      6.46069565	     -9.97754251	     11.15157936	     -2.16153357
      1.01200000	     -2.57346794	     -1.85162996	      0.71757987	      0.44317642	      0.99712327	      0.31163812	     14.74636657	      6.10063767	      2.57457196	    -23.88270395	     13.00169523	    -12.00237161	     -1.40091436	     15.88870285	     -3.68238343	     -1.02267944	    -69.46065733	     -5.12053785	     -1.09671369	      6.45764156	    -10.10694681	     10.92891435	     -1.76424555
      1.01616667	     -2.51681738	     -1.72856627	      0.52244450	      0.44780510	      0.99815936	      0.31205741	     14.14946858	      6.01277906	      2.75085669	    -23.38995896	     13.02949119	    -11.91195683	     -1.36700830	     16.38617806	     -3.62970683	     -1.24290104	    -69.20347697	     -4.10077763	     -0.79013443	      6.44557924	    -10.22310060	     10.71358805	     -1.36511984
      1.02033333	     -2.47075464	     -1.59759262	      0.32697353	      0.45243233	      0.99915594	      0.31246567	     13.56580952	      5.91056311	      2.92075773	    -22.89832500	     13.05778496	    -11.81440021	     -1.33251831	     16.88413209	     -3.56933008	     -1.46618531	    -68.89568595	     -3.11666896	     -0.50225449	      6.42512973	    -10.32526991	     10.49069127	     -0.98129192
      1.02450000	     -2.39724088	     -1.46780311	      0.13246543	      0.45706380	      1.00017219	      0.31285791	     12.94640697	      5.80367639	      3.08907342	    -22.39061843	     13.08113777	    -11.70997337	     -1.29509364	     17.33946180	     -3.51141408	     -1.69059540	    -68.53717451	     -2.17082643	     -0.23035745	      6.39220892	    -10.45991237	     10.26993376	     -0.59087539
      1.02866667	     -2.33381451	     -1.33863284	     -0.05975980	      0.46167840	      1.00113633	      0.31323190	     12.34011647	      5.69161584	      3.25761406	    -21.88330117	     13.09427146	    -11.60337126	     -1.25892545	     17.79913706	     -3.45386365	     -1.91342661	    -68.13956961	     -1.25571738	      0.02088220	      6.35370596	    -10.58671542	     10.05781053	     -0.22775407
      1.03283333	     -2.26601118	     -1.21163070	     -0.25415397	      0.46632753	      1.00208416	      0.31360249	     11.72338662	      5.57644871	      3.41511957	    -21.36334685	     13.10933268	    -11.49909594	     -1.21743805	     18.23684752	     -3.40250578	     -2.14189297	    -67.68796727	     -0.39767146	      0.24515527	      6.29706886	    -10.70068019	      9.83966896	      0.16144082
      1.03700000	     -2.19093368	     -1.07328557	     -0.44287160	      0.47096056	      1.00302187	      0.31394495	     11.10273467	      5.44121475	      3.56664606	    -20.84602977	     13.12416253	    -11.37849374	     -1.17547035	     18.65576763	     -3.33603667	     -2.36928488	    -67.18540150	      0.40729677	      0.43074675	      6.23202622	    -10.82032046	      9.61388880	      0.51798125
      1.04116667	     -2.10436023	     -0.94876218	     -0.62888388	      0.47559556	      1.00392665	      0.31427468	     10.46811114	      5.31579339	      3.71367484	    -20.32277703	     13.13792983	    -11.25616047	     -1.13274241	     19.05386792	     -3.28385994	     -2.58972455	    -66.64649653	      1.17104871	      0.59762216	      6.15847273	    -10.96025938	      9.40825219	      0.87238250
      1.04533333	     -2.04285513	     -0.80607651	     -0.82001473	      0.48021826	      1.00477570	      0.31456893	      9.87069880	      5.16392338	      3.86335693	    -19.81600397	     13.13755411	    -11.12179376	     -1.09231539	     19.46309137	     -3.20101090	     -2.80088512	    -66.05415491	      1.88526884	      0.71480890	      6.08242350	    -11.07522522	      9.19959200	      1.20201814
      1.04950000	     -1.96088512	     -0.68348182	     -0.99994309	      0.48485004	      1.00559982	      0.31485913	      9.24431818	      5.02749995	      3.99210855	    -19.29088267	     13.15257667	    -10.98647012	     -1.04954978	     19.84383223	     -3.14467433	     -3.00872842	    -65.43012124	      2.54713140	      0.81339033	      5.99630373	    -11.19935501	      9.00253428	      1.54149774
      1.05366667	     -1.85544296	     -0.56675166	     -1.17656969	      0.48949970	      1.00642477	      0.31514618	      8.59098635	      4.89264721	      4.11390298	    -18.76227902	     13.16507143	    -10.84707476	     -1.00093567	     20.18452587	     -3.09487259	     -3.21459603	    -64.76077356	      3.15557511	      0.87410642	      5.88945743	    -11.35000672	      8.78024014	      1.89428227
      1.05783333	     -1.78812410	     -0.44704411	     -1.35477474	      0.49412784	      1.00714991	      0.31539892	      7.98876028	      4.74940951	      4.23686112	    -18.24868700	     13.17261809	    -10.70477042	     -0.94757962	     20.55722101	     -3.03204369	     -3.40389531	    -64.05431570	      3.71957860	      0.90035504	      5.76556074	    -11.46122807	      8.58173937	      2.23349857
      1.06200000	     -1.72090778	     -0.31347622	     -1.53534298	      0.49874734	      1.00783981	      0.31560584	      7.40278355	      4.58264030	      4.34292388	    -17.76342015	     13.14751150	    -10.53916284	     -0.91286885	     20.91342413	     -2.94177063	     -3.58232897	    -63.29810986	      4.24725748	      0.86568807	      5.68392018	    -11.56635389	      8.40768029	      2.46762043
      1.06616667	     -1.61705317	     -0.21073623	     -1.70522888	      0.50339065	      1.00852813	      0.31583701	      6.75866064	      4.44704387	      4.44815668	    -17.24079758	     13.19119287	    -10.37254804	     -0.80259308	     21.22225644	     -2.89016118	     -3.75116032	    -62.51411294	      4.69945075	      0.79737173	      5.40224835	    -11.71777614	      8.19928402	      2.93408110
      1.07033333	     -1.52588404	     -0.07847621	     -1.86100091	      0.50802439	      1.00917216	      0.31601747	      6.14225580	      4.27173210	      4.52897999	    -16.74471702	     13.22608624	    -10.20750244	     -0.75265660	     21.52808549	     -2.78818611	     -3.88948561	    -61.67366347	      5.11094126	      0.74718116	      5.27781881	    -11.84752671	      7.99666999	      3.14056414
      1.07450000	     -1.42773063	      0.03816281	     -2.01816613	      0.51266840	      1.00978811	      0.31617638	      5.51723073	      4.10826796	      4.60600990	    -16.24344474	     13.24267216	    -10.02815273	     -0.70357570	     21.81235743	     -2.69750155	     -4.01678719	    -60.79674130	      5.47846430	      0.62279775	      5.14956616	    -11.98463095	      7.81309511	      3.42155334
